<?xml version="1.0" encoding="UTF-8"?>
<svg version="1.1" xmlns="http://www.w3.org/2000/svg" width="781" height="628">
<path d="M0 0 C257.73 0 515.46 0 781 0 C781 207.24 781 414.48 781 628 C523.27 628 265.54 628 0 628 C0 420.76 0 213.52 0 0 Z " fill="#000000" transform="translate(0,0)"/>
<path d="M0 0 C53.79 0 107.58 0 163 0 C163 10.89 163 21.78 163 33 C186.43 33 209.86 33 234 33 C234 43.89 234 54.78 234 66 C255.12 66 276.24 66 298 66 C298 76.89 298 87.78 298 99 C303.25808594 98.98839844 308.51617188 98.97679687 313.93359375 98.96484375 C317.2558606 98.95973691 320.57812264 98.95492313 323.90039062 98.95117188 C329.17880248 98.94518375 334.45719707 98.93808428 339.7355957 98.92456055 C343.98901115 98.91373056 348.24240809 98.90772293 352.49583626 98.90512276 C354.12221633 98.90326871 355.74859534 98.89964848 357.37496758 98.89426994 C359.64510193 98.88705802 361.91515885 98.88600912 364.18530273 98.88647461 C366.12722755 98.88314369 366.12722755 98.88314369 368.10838318 98.87974548 C371 99 371 99 372 100 C372.1007812 102.36398468 372.13973215 104.69811311 372.1328125 107.0625 C372.13376923 107.76898682 372.13472595 108.47547363 372.13571167 109.20336914 C372.13639333 110.69970793 372.13454005 112.19604967 372.13037109 113.69238281 C372.12502257 115.99030157 372.13031651 118.28802486 372.13671875 120.5859375 C372.13605797 122.03645877 372.1347768 123.48697991 372.1328125 124.9375 C372.13483673 125.6291626 372.13686096 126.3208252 372.13894653 127.03344727 C372.11495224 131.88504776 372.11495224 131.88504776 371 133 C369.60856311 133.09543095 368.21231633 133.12188575 366.81761169 133.12025452 C365.91592255 133.12162918 365.0142334 133.12300385 364.08522034 133.12442017 C363.08828659 133.12082489 362.09135284 133.11722961 361.06420898 133.11352539 C360.02043091 133.11367142 358.97665283 133.11381744 357.90124512 133.1139679 C354.43284057 133.11326826 350.96448897 133.10547353 347.49609375 133.09765625 C345.09855682 133.09579225 342.7010195 133.09436826 340.30348206 133.09336853 C333.97904416 133.08954194 327.65462906 133.07971046 321.3302002 133.06866455 C314.88224598 133.05845345 308.43428809 133.05387156 301.98632812 133.04882812 C289.3242071 133.03808831 276.66210901 133.02049038 264 133 C264 122.11 264 111.22 264 100 C243.21 100 222.42 100 201 100 C201 89.11 201 78.22 201 67 C177.57 67 154.14 67 130 67 C130 55.78 130 44.56 130 33 C97.99 33 65.98 33 33 33 C33 43.89 33 54.78 33 66 C19.47 66 5.94 66 -8 66 C-8 77.22 -8 88.44 -8 100 C-21.2 100 -34.4 100 -48 100 C-48 110.56 -48 121.12 -48 132 C-31.83 132 -15.66 132 1 132 C1 143.22 1 154.44 1 166 C-26.39 166 -53.78 166 -82 166 C-82 154.78 -82 143.56 -82 132 C-103.78 132 -125.56 132 -148 132 C-148 121.11 -148 110.22 -148 99 C-126.22 99 -104.44 99 -82 99 C-82 88.11 -82 77.22 -82 66 C-68.47 66 -54.94 66 -41 66 C-41 55.11 -41 44.22 -41 33 C-27.47 33 -13.94 33 0 33 C0 22.11 0 11.22 0 0 Z " fill="#7DD657" transform="translate(309,166)"/>
<path d="M0 0 C27.39 0 54.78 0 83 0 C83 10.89 83 21.78 83 33 C104.78 33 126.56 33 149 33 C149 43.89 149 54.78 149 66 C127.22 66 105.44 66 83 66 C83 77.22 83 88.44 83 100 C69.47 100 55.94 100 42 100 C42 110.89 42 121.78 42 133 C28.47 133 14.94 133 1 133 C1 143.56 1 154.12 1 165 C-52.79 165 -106.58 165 -162 165 C-162 154.11 -162 143.22 -162 132 C-185.76 132 -209.52 132 -234 132 C-234 121.44 -234 110.88 -234 100 C-254.79 100 -275.58 100 -297 100 C-297 89.11 -297 78.22 -297 67 C-321.42 67 -345.84 67 -371 67 C-371 55.78 -371 44.56 -371 33 C-335.36 33 -299.72 33 -263 33 C-263 43.89 -263 54.78 -263 66 C-242.21 66 -221.42 66 -200 66 C-200 76.89 -200 87.78 -200 99 C-176.24 99 -152.48 99 -128 99 C-128 109.89 -128 120.78 -128 132 C-96.65 132 -65.3 132 -33 132 C-33 121.11 -33 110.22 -33 99 C-19.47 99 -5.94 99 8 99 C8 88.11 8 77.22 8 66 C21.86 66 35.72 66 50 66 C50 55.11 50 44.22 50 33 C33.5 33 17 33 0 33 C0 22.11 0 11.22 0 0 Z " fill="#7BD155" transform="translate(474,298)"/>
<path d="M0 0 C63.69 0 127.38 0 193 0 C193 11.22 193 22.44 193 34 C140.53 34 88.06 34 34 34 C34 44.56 34 55.12 34 66 C15.52 66 -2.96 66 -22 66 C-22 77.22 -22 88.44 -22 100 C-29.92890315 100.02094515 -37.85770665 100.04098329 -45.78661346 100.05175018 C-49.47860391 100.05704002 -53.17057155 100.06411374 -56.86254883 100.07543945 C-60.41570831 100.08627162 -63.96884563 100.09227753 -67.52202034 100.09487724 C-68.88045666 100.0967309 -70.23889171 100.10035038 -71.59731865 100.10573006 C-73.49382223 100.11294475 -75.39034793 100.11340809 -77.28686523 100.11352539 C-78.90902199 100.11685631 -78.90902199 100.11685631 -80.56394958 100.12025452 C-83 100 -83 100 -84 99 C-84.08843793 96.55169574 -84.11528752 94.13179401 -84.09765625 91.68359375 C-84.0962413 90.95253922 -84.09482635 90.22148468 -84.09336853 89.46827698 C-84.08775408 87.12464368 -84.07519922 84.78110461 -84.0625 82.4375 C-84.05748686 80.85221492 -84.05292363 79.26692834 -84.04882812 77.68164062 C-84.03862921 73.78769457 -84.01905687 69.89395323 -84 66 C-74.43 66 -64.86 66 -55 66 C-55 55.11 -55 44.22 -55 33 C-36.85 33 -18.7 33 0 33 C0 22.11 0 11.22 0 0 Z " fill="#7BD255" transform="translate(245,100)"/>
<path d="M0 0 C20.79 0 41.58 0 63 0 C63 10.89 63 21.78 63 33 C53.1 33 43.2 33 33 33 C33 43.89 33 54.78 33 66 C14.85 66 -3.3 66 -22 66 C-22 76.89 -22 87.78 -22 99 C-85.03 99 -148.06 99 -213 99 C-213 88.44 -213 77.88 -213 67 C-160.86 67 -108.72 67 -55 67 C-55 55.78 -55 44.56 -55 33 C-36.85 33 -18.7 33 0 33 C0 22.11 0 11.22 0 0 Z " fill="#7DD557" transform="translate(560,430)"/>
<path d="M0 0 C1.64534467 0.54314921 3.29119572 1.0847664 4.9375 1.625 C6.292173 2.08183463 7.64652311 2.53963371 9 3 C9 3.66 9 4.32 9 5 C9.73347656 5.2578125 10.46695313 5.515625 11.22265625 5.78125 C19.70177166 9.50204326 24.94434542 16.97968309 29 25 C29.3403125 25.59941406 29.680625 26.19882812 30.03125 26.81640625 C33.97463713 34.97702683 33.20405325 48.36168786 30.81640625 57.02734375 C29.13164476 61.09817894 26.68081438 64.52853069 24 68 C23.46117187 68.70382812 22.92234375 69.40765625 22.3671875 70.1328125 C18.19923783 75.23128117 13.63857352 78.65827446 8 82 C6.98099609 82.73283203 6.98099609 82.73283203 5.94140625 83.48046875 C-2.51263842 88.86031536 -13.37297026 88.1514569 -23 87 C-34.81515802 84.09241158 -44.13157082 76.57052384 -50.6328125 66.4609375 C-57.15293864 55.27907867 -58.99763132 42.77322161 -56.3828125 29.98046875 C-52.95400475 19.37543946 -45.75101068 9.54724163 -36 4 C-24.08984475 -1.04244721 -12.6765185 -4.46025651 0 0 Z " fill="#7BD255" transform="translate(406,272)"/>
<path d="M0 0 C31.68 0 63.36 0 96 0 C96 10.23 96 20.46 96 31 C64.32 31 32.64 31 0 31 C0 20.77 0 10.54 0 0 Z " fill="#7ED757" transform="translate(525,332)"/>
<path d="M0 0 C19.8 0 39.6 0 60 0 C60 11.22 60 22.44 60 34 C40.2 34 20.4 34 0 34 C0 22.78 0 11.56 0 0 Z " fill="#79CE54" transform="translate(642,199)"/>
<path d="M0 0 C19.8 0 39.6 0 60 0 C60 10.89 60 21.78 60 33 C40.2 33 20.4 33 0 33 C0 22.11 0 11.22 0 0 Z " fill="#7CD355" transform="translate(82,397)"/>
<path d="M0 0 C5.61 0 11.22 0 17 0 C17 3.63 17 7.26 17 11 C25.91 11 34.82 11 44 11 C44 21.89 44 32.78 44 44 C32.78 44 21.56 44 10 44 C10 35.42 10 26.84 10 18 C6.7 18 3.4 18 0 18 C0 12.06 0 6.12 0 0 Z " fill="#060B04" transform="translate(366,287)"/>
<path d="M0 0 C10.89 0 21.78 0 33 0 C33 10.89 33 21.78 33 33 C22.11 33 11.22 33 0 33 C0 22.11 0 11.22 0 0 Z " fill="#7ACF54" transform="translate(713,265)"/>
<path d="M0 0 C10.56 0 21.12 0 32 0 C32 10.56 32 21.12 32 32 C21.44 32 10.88 32 0 32 C0 21.44 0 10.88 0 0 Z " fill="#7DD657" transform="translate(38,332)"/>
<path d="M0 0 C13.53 0 27.06 0 41 0 C41 0.33 41 0.66 41 1 C27.8 1 14.6 1 1 1 C1 11.23 1 21.46 1 32 C24.76 32 48.52 32 73 32 C73 21.44 73 10.88 73 0 C73.33 0 73.66 0 74 0 C74 11.22 74 22.44 74 34 C60.8 34 47.6 34 34 34 C34 44.56 34 55.12 34 66 C50.17 66 66.34 66 83 66 C83 77.22 83 88.44 83 100 C55.61 100 28.22 100 0 100 C0 88.78 0 77.56 0 66 C-21.78 66 -43.56 66 -66 66 C-66 55.11 -66 44.22 -66 33 C-44.22 33 -22.44 33 0 33 C0 22.11 0 11.22 0 0 Z M-64 34 C-64 44.23 -64 54.46 -64 65 C-32.32 65 -0.64 65 32 65 C32 54.77 32 44.54 32 34 C0.32 34 -31.36 34 -64 34 Z M1 67 C1 77.23 1 87.46 1 98 C27.73 98 54.46 98 82 98 C82 87.77 82 77.54 82 67 C55.27 67 28.54 67 1 67 Z " fill="#56933B" transform="translate(227,232)"/>
<path d="M0 0 C23.76 0 47.52 0 72 0 C72 10.89 72 21.78 72 33 C92.79 33 113.58 33 135 33 C135 43.56 135 54.12 135 65 C169.65 65 204.3 65 240 65 C240 54.77 240 44.54 240 34 C237.7938501 34.00523682 235.5877002 34.01047363 233.31469727 34.01586914 C226.04238902 34.03240596 218.77007995 34.04347159 211.49775791 34.05181217 C207.08662996 34.05704069 202.6755212 34.06413777 198.2644043 34.07543945 C194.01098885 34.08626944 189.75759191 34.09227707 185.50416374 34.09487724 C183.87778367 34.09673129 182.25140466 34.10035152 180.62503242 34.10573006 C178.35489807 34.11294198 176.08484115 34.11399088 173.81469727 34.11352539 C171.87277245 34.11685631 171.87277245 34.11685631 169.89161682 34.12025452 C167 34 167 34 166 33 C165.91161352 30.62458949 165.88462477 28.2776642 165.90234375 25.90234375 C165.90484131 24.60546631 165.90733887 23.30858887 165.90991211 21.97241211 C165.91901611 20.31089111 165.92812012 18.64937012 165.9375 16.9375 C165.958125 11.678125 165.97875 6.41875 166 1 C145.54 1 125.08 1 104 1 C104 0.67 104 0.34 104 0 C125.12 0 146.24 0 168 0 C168 10.89 168 21.78 168 33 C173.25808594 32.98839844 178.51617188 32.97679687 183.93359375 32.96484375 C187.2558606 32.95973691 190.57812264 32.95492313 193.90039062 32.95117188 C199.17880248 32.94518375 204.45719707 32.93808428 209.7355957 32.92456055 C213.98901115 32.91373056 218.24240809 32.90772293 222.49583626 32.90512276 C224.12221633 32.90326871 225.74859534 32.89964848 227.37496758 32.89426994 C229.64510193 32.88705802 231.91515885 32.88600912 234.18530273 32.88647461 C236.12722755 32.88314369 236.12722755 32.88314369 238.10838318 32.87974548 C241 33 241 33 242 34 C242.1007812 36.36398468 242.13973215 38.69811311 242.1328125 41.0625 C242.13376923 41.76898682 242.13472595 42.47547363 242.13571167 43.20336914 C242.13639333 44.69970793 242.13454005 46.19604967 242.13037109 47.69238281 C242.12502257 49.99030157 242.13031651 52.28802486 242.13671875 54.5859375 C242.13605797 56.03645877 242.1347768 57.48697991 242.1328125 58.9375 C242.13483673 59.6291626 242.13686096 60.3208252 242.13894653 61.03344727 C242.11495224 65.88504776 242.11495224 65.88504776 241 67 C239.60856311 67.09543095 238.21231633 67.12188575 236.81761169 67.12025452 C235.46507797 67.12231651 235.46507797 67.12231651 234.08522034 67.12442017 C233.08828659 67.12082489 232.09135284 67.11722961 231.06420898 67.11352539 C230.02043091 67.11367142 228.97665283 67.11381744 227.90124512 67.1139679 C224.43284057 67.11326826 220.96448897 67.10547353 217.49609375 67.09765625 C215.09855682 67.09579225 212.7010195 67.09436826 210.30348206 67.09336853 C203.97904416 67.08954194 197.65462906 67.07971046 191.3302002 67.06866455 C184.88224598 67.05845345 178.43428809 67.05387156 171.98632812 67.04882812 C159.3242071 67.03808831 146.66210901 67.02049038 134 67 C134 56.11 134 45.22 134 34 C113.21 34 92.42 34 71 34 C71 23.11 71 12.22 71 1 C47.57 1 24.14 1 0 1 C0 0.67 0 0.34 0 0 Z " fill="#487B32" transform="translate(439,232)"/>
<path d="M0 0 C52.47 0 104.94 0 159 0 C159 0.33 159 0.66 159 1 C106.86 1 54.72 1 1 1 C1 11.56 1 22.12 1 33 C64.03 33 127.06 33 192 33 C192 22.11 192 11.22 192 0 C210.15 0 228.3 0 247 0 C247 0.66 247 1.32 247 2 C229.51 2 212.02 2 194 2 C194 12.56 194 23.12 194 34 C129.98 34 65.96 34 0 34 C0 22.78 0 11.56 0 0 Z " fill="#3D682A" transform="translate(346,496)"/>
<path d="M0 0 C9.57 0 19.14 0 29 0 C29 0.33 29 0.66 29 1 C20.09 1 11.18 1 2 1 C2 11.23 2 21.46 2 32 C5.774375 31.979375 9.54875 31.95875 13.4375 31.9375 C29.63697255 31.89572778 45.81265991 32.42866424 62 33 C62 33.33 62 33.66 62 34 C54.06386213 34.02312764 46.12773824 34.04091723 38.19157505 34.05181217 C34.50685502 34.05704008 30.82215797 34.06413605 27.13745117 34.07543945 C23.58429169 34.08627162 20.03115437 34.09227753 16.47797966 34.09487724 C15.11954334 34.0967309 13.76110829 34.10035038 12.40268135 34.10573006 C10.50617777 34.11294475 8.60965207 34.11340809 6.71313477 34.11352539 C5.09097801 34.11685631 5.09097801 34.11685631 3.43605042 34.12025452 C1 34 1 34 0 33 C-0.08843793 30.55169574 -0.11528752 28.13179401 -0.09765625 25.68359375 C-0.0962413 24.95253922 -0.09482635 24.22148468 -0.09336853 23.46827698 C-0.08775408 21.12464368 -0.07519922 18.78110461 -0.0625 16.4375 C-0.05748686 14.85221492 -0.05292363 13.26692834 -0.04882812 11.68164062 C-0.03862921 7.78769457 -0.01905687 3.89395323 0 0 Z " fill="#487B32" transform="translate(161,166)"/>
<path d="M0 0 C18.15 0 36.3 0 55 0 C55 0.66 55 1.32 55 2 C37.51 2 20.02 2 2 2 C2 12.56 2 23.12 2 34 C1.34 34 0.68 34 0 34 C0 22.78 0 11.56 0 0 Z " fill="#213816" transform="translate(538,496)"/>
<path d="M0 0 C0.66 0.33 1.32 0.66 2 1 C0.88121617 2.17262904 -0.24523051 3.33795138 -1.375 4.5 C-2.00148438 5.1496875 -2.62796875 5.799375 -3.2734375 6.46875 C-5 8 -5 8 -7 8 C-5.50902342 4.2047869 -3.24299151 2.38957269 0 0 Z " fill="#60A342" transform="translate(367,278)"/>
</svg>
