<svg xmlns="http://www.w3.org/2000/svg"  viewBox="0 0 48 48" width="48px" height="48px"><linearGradient id="iKETcnpxVdP7M1CnGu66Va" x1="4.314" x2="45.867" y1="4.495" y2="45.665" gradientUnits="userSpaceOnUse"><stop offset=".002" stop-color="#9c55d4"/><stop offset=".003" stop-color="#5340ff"/><stop offset=".386" stop-color="#4a31ff"/><stop offset="1" stop-color="#3811ff"/></linearGradient><path fill="url(#iKETcnpxVdP7M1CnGu66Va)" d="M40,6H8C6.895,6,6,6.895,6,8v32c0,1.105,0.895,2,2,2h32c1.105,0,2-0.895,2-2V8	C42,6.895,41.105,6,40,6z"/><path d="M31.249,16.906l-3.886-2.018l-0.244-0.127L26.88,14.9l-5.369,3.132l-0.59,0.344v-3.044v-0.934	l-0.777,0.518l-5.369,3.579l-0.223,0.148v0.268v8.563c0,1.529,0.843,2.916,2.2,3.62l3.886,2.018l0.244,0.127L21.12,33.1l5.369-3.132	l0.59-0.344v3.044v0.934l0.777-0.518l5.369-3.579l0.223-0.148v-0.268v-8.563C33.448,18.997,32.605,17.61,31.249,16.906z M26.481,29.1l-4.439-2.476c-0.691-0.385-1.12-1.117-1.12-1.908v-6.15l0.599,0.334l4.439,2.476c0.691,0.385,1.12,1.117,1.12,1.908	v6.15L26.481,29.1z" opacity=".07"/><path d="M31.479,16.462l-3.886-2.018l-0.489-0.254l-0.476,0.278l-5.207,3.038v-2.174v-1.868l-1.555,1.036	l-5.369,3.579l-0.445,0.297v0.535v8.563c0,1.716,0.946,3.273,2.469,4.064l3.886,2.018l0.489,0.254l0.476-0.278l5.207-3.038v2.174	v1.869l1.555-1.036l5.369-3.579l0.445-0.297v-0.535v-8.563C33.948,18.81,33.002,17.253,31.479,16.462z M21.421,24.716v-5.299	l4.295,2.395c0.533,0.297,0.864,0.861,0.864,1.471v5.299l-4.295-2.395C21.752,25.89,21.421,25.327,21.421,24.716z" opacity=".05"/><path fill="#fff" d="M20.868,32.669l-3.886-2.018c-1.186-0.616-1.93-1.841-1.93-3.177v-8.563l5.369-3.579v9.385 c0,0.973,0.527,1.87,1.377,2.345l4.439,2.476L20.868,32.669z"/><path fill="#fff" d="M27.132,15.331l3.886,2.018c1.186,0.616,1.93,1.841,1.93,3.177v8.563l-5.369,3.579v-9.385 c0-0.973-0.527-1.87-1.377-2.345l-4.439-2.476L27.132,15.331z"/></svg>